<svg width="20" height="14" viewBox="0 0 20 14" fill="none" xmlns="http://www.w3.org/2000/svg">
<path id="Vector" d="M17.875 0H1.375C1.01033 0 0.660591 0.144866 0.402728 0.402728C0.144866 0.660591 0 1.01033 0 1.375V12.375C0 12.7397 0.144866 13.0894 0.402728 13.3473C0.660591 13.6051 1.01033 13.75 1.375 13.75H17.875C18.2397 13.75 18.5894 13.6051 18.8473 13.3473C19.1051 13.0894 19.25 12.7397 19.25 12.375V1.375C19.25 1.01033 19.1051 0.660591 18.8473 0.402728C18.5894 0.144866 18.2397 0 17.875 0ZM16.3625 1.375L9.625 6.03625L2.8875 1.375H16.3625ZM1.375 12.375V2.00062L9.23313 7.43875C9.34821 7.51859 9.48493 7.56137 9.625 7.56137C9.76507 7.56137 9.90179 7.51859 10.0169 7.43875L17.875 2.00062V12.375H1.375Z" fill="black"/>
</svg>
