<svg width="23" height="23" viewBox="0 0 23 23" fill="none" xmlns="http://www.w3.org/2000/svg">
<g id="&#208;&#162;&#208;&#190;&#209;&#135;&#208;&#186;&#208;&#184; (&#208;&#159;&#208;&#190;&#208;&#180;&#209;&#128;&#208;&#190;&#208;&#177;&#208;&#189;&#208;&#181;&#208;&#181;)">
<path id="Vector" d="M2.67857 5.35714C4.15788 5.35714 5.35714 4.15788 5.35714 2.67857C5.35714 1.19924 4.15788 0 2.67857 0C1.19924 0 0 1.19924 0 2.67857C0 4.15788 1.19924 5.35714 2.67857 5.35714Z" fill="black"/>
<path id="Vector_2" d="M11.2499 5.35714C12.7292 5.35714 13.9284 4.15788 13.9284 2.67857C13.9284 1.19924 12.7292 0 11.2499 0C9.77055 0 8.57129 1.19924 8.57129 2.67857C8.57129 4.15788 9.77055 5.35714 11.2499 5.35714Z" fill="black"/>
<path id="Vector_3" d="M19.8216 5.35714C21.3009 5.35714 22.5002 4.15788 22.5002 2.67857C22.5002 1.19924 21.3009 0 19.8216 0C18.3423 0 17.1431 1.19924 17.1431 2.67857C17.1431 4.15788 18.3423 5.35714 19.8216 5.35714Z" fill="black"/>
<path id="Vector_4" d="M2.67857 13.9287C4.15788 13.9287 5.35714 12.7294 5.35714 11.2501C5.35714 9.7708 4.15788 8.57153 2.67857 8.57153C1.19924 8.57153 0 9.7708 0 11.2501C0 12.7294 1.19924 13.9287 2.67857 13.9287Z" fill="black"/>
<path id="Vector_5" d="M11.2499 13.9287C12.7292 13.9287 13.9284 12.7294 13.9284 11.2501C13.9284 9.7708 12.7292 8.57153 11.2499 8.57153C9.77055 8.57153 8.57129 9.7708 8.57129 11.2501C8.57129 12.7294 9.77055 13.9287 11.2499 13.9287Z" fill="black"/>
<path id="Vector_6" d="M19.8216 13.9287C21.3009 13.9287 22.5002 12.7294 22.5002 11.2501C22.5002 9.7708 21.3009 8.57153 19.8216 8.57153C18.3423 8.57153 17.1431 9.7708 17.1431 11.2501C17.1431 12.7294 18.3423 13.9287 19.8216 13.9287Z" fill="black"/>
<path id="Vector_7" d="M2.67857 22.5C4.15788 22.5 5.35714 21.3007 5.35714 19.8214C5.35714 18.3421 4.15788 17.1428 2.67857 17.1428C1.19924 17.1428 0 18.3421 0 19.8214C0 21.3007 1.19924 22.5 2.67857 22.5Z" fill="black"/>
<path id="Vector_8" d="M11.2499 22.5C12.7292 22.5 13.9284 21.3007 13.9284 19.8214C13.9284 18.3421 12.7292 17.1428 11.2499 17.1428C9.77055 17.1428 8.57129 18.3421 8.57129 19.8214C8.57129 21.3007 9.77055 22.5 11.2499 22.5Z" fill="black"/>
<path id="Vector_9" d="M19.8216 22.5C21.3009 22.5 22.5002 21.3007 22.5002 19.8214C22.5002 18.3421 21.3009 17.1428 19.8216 17.1428C18.3423 17.1428 17.1431 18.3421 17.1431 19.8214C17.1431 21.3007 18.3423 22.5 19.8216 22.5Z" fill="black"/>
</g>
</svg>
