<svg width="14" height="23" viewBox="0 0 14 23" fill="none" xmlns="http://www.w3.org/2000/svg">
<path id="Vector" d="M10.9375 0H2.60417C1.9135 0 1.25112 0.274367 0.762743 0.762743C0.274367 1.25112 0 1.9135 0 2.60417V20.3125C0 21.0032 0.274367 21.6655 0.762743 22.1539C1.25112 22.6423 1.9135 22.9167 2.60417 22.9167H10.9375C11.6282 22.9167 12.2905 22.6423 12.7789 22.1539C13.2673 21.6655 13.5417 21.0032 13.5417 20.3125V2.60417C13.5417 1.9135 13.2673 1.25112 12.7789 0.762743C12.2905 0.274367 11.6282 0 10.9375 0ZM6.77083 21.875C5.90625 21.875 5.20833 21.1771 5.20833 20.3125C5.20833 19.4479 5.90625 18.75 6.77083 18.75C7.63542 18.75 8.33333 19.4479 8.33333 20.3125C8.33333 21.1771 7.63542 21.875 6.77083 21.875ZM11.4583 17.7083H2.08333V3.125H11.4583V17.7083Z" fill="black"/>
</svg>
