<svg width="20" height="20" viewBox="0 0 20 20" fill="none" xmlns="http://www.w3.org/2000/svg">
<g id="Group 3">
<path id="Vector" d="M10 0C7.35831 0.0336892 4.8343 1.09807 2.96618 2.96618C1.09807 4.8343 0.0336892 7.35831 0 10C0.0123489 11.5389 0.379721 13.0542 1.07351 14.4279C1.7673 15.8016 2.76879 16.9967 4 17.92V18H4.1C5.79318 19.2975 7.86685 20.0006 10 20.0006C12.1332 20.0006 14.2068 19.2975 15.9 18H16V17.92C17.2312 16.9967 18.2327 15.8016 18.9265 14.4279C19.6203 13.0542 19.9877 11.5389 20 10C19.9663 7.35831 18.9019 4.8343 17.0338 2.96618C15.1657 1.09807 12.6417 0.0336892 10 0ZM6.07 16.93C6.21599 16.2614 6.58615 15.6629 7.11908 15.2336C7.65202 14.8044 8.31569 14.5702 9 14.57H11C11.6843 14.5702 12.348 14.8044 12.8809 15.2336C13.4138 15.6629 13.784 16.2614 13.93 16.93C12.7389 17.6308 11.382 18.0004 10 18.0004C8.618 18.0004 7.26113 17.6308 6.07 16.93ZM15.61 15.64C15.2296 14.7309 14.5891 13.9546 13.7689 13.4084C12.9487 12.8622 11.9854 12.5705 11 12.57H9C8.01458 12.5705 7.05127 12.8622 6.23108 13.4084C5.41088 13.9546 4.77037 14.7309 4.39 15.64C3.64066 14.903 3.0439 14.0255 2.63381 13.0578C2.22373 12.0901 2.00835 11.051 2 10C2.02594 7.88633 2.87712 5.86653 4.37183 4.37183C5.86653 2.87712 7.88633 2.02594 10 2C12.1137 2.02594 14.1335 2.87712 15.6282 4.37183C17.1229 5.86653 17.9741 7.88633 18 10C17.9916 11.051 17.7763 12.0901 17.3662 13.0578C16.9561 14.0255 16.3593 14.903 15.61 15.64Z" fill="black"/>
<path id="Vector_2" d="M9.99996 3.99996C9.47131 3.98765 8.94565 4.08269 8.45478 4.27935C7.96391 4.47601 7.51803 4.7702 7.14411 5.14411C6.7702 5.51803 6.47601 5.96391 6.27935 6.45478C6.08269 6.94565 5.98765 7.47131 5.99996 7.99996C5.98765 8.52862 6.08269 9.05428 6.27935 9.54515C6.47601 10.036 6.7702 10.4819 7.14411 10.8558C7.51803 11.2297 7.96391 11.5239 8.45478 11.7206C8.94565 11.9172 9.47131 12.0123 9.99996 12C10.5286 12.0123 11.0543 11.9172 11.5451 11.7206C12.036 11.5239 12.4819 11.2297 12.8558 10.8558C13.2297 10.4819 13.5239 10.036 13.7206 9.54515C13.9172 9.05428 14.0123 8.52862 14 7.99996C14.0123 7.47131 13.9172 6.94565 13.7206 6.45478C13.5239 5.96391 13.2297 5.51803 12.8558 5.14411C12.4819 4.7702 12.036 4.47601 11.5451 4.27935C11.0543 4.08269 10.5286 3.98765 9.99996 3.99996ZM9.99996 9.99996C9.73391 10.0128 9.46811 9.9699 9.21964 9.87394C8.97116 9.77798 8.7455 9.63111 8.55716 9.44276C8.36881 9.25442 8.22195 9.02876 8.12599 8.78029C8.03003 8.53181 7.9871 8.26601 7.99996 7.99996C7.9871 7.73391 8.03003 7.46811 8.12599 7.21964C8.22195 6.97116 8.36881 6.7455 8.55716 6.55716C8.7455 6.36881 8.97116 6.22195 9.21964 6.12599C9.46811 6.03003 9.73391 5.9871 9.99996 5.99996C10.266 5.9871 10.5318 6.03003 10.7803 6.12599C11.0288 6.22195 11.2544 6.36881 11.4428 6.55716C11.6311 6.7455 11.778 6.97116 11.8739 7.21964C11.9699 7.46811 12.0128 7.73391 12 7.99996C12.0128 8.26601 11.9699 8.53181 11.8739 8.78029C11.778 9.02876 11.6311 9.25442 11.4428 9.44276C11.2544 9.63111 11.0288 9.77798 10.7803 9.87394C10.5318 9.9699 10.266 10.0128 9.99996 9.99996Z" fill="black"/>
</g>
</svg>
