<svg width="19" height="18" viewBox="0 0 19 18" fill="none" xmlns="http://www.w3.org/2000/svg">
<path d="M17.5299 6.2908L12.1008 5.50178L9.67392 0.581666C9.60764 0.446957 9.49859 0.337906 9.36388 0.27162C9.02603 0.104836 8.61549 0.243823 8.44657 0.581666L6.01965 5.50178L0.590638 6.2908C0.440961 6.31218 0.304112 6.38274 0.199338 6.48965C0.0726719 6.61985 0.00287304 6.795 0.00527869 6.97662C0.00768434 7.15825 0.0820977 7.33149 0.212168 7.45828L4.14013 11.2879L3.21213 16.6955C3.19037 16.8213 3.20429 16.9507 3.25231 17.069C3.30034 17.1873 3.38054 17.2897 3.48384 17.3647C3.58713 17.4398 3.70938 17.4843 3.83671 17.4934C3.96405 17.5025 4.09139 17.4757 4.20428 17.4161L9.06025 14.863L13.9162 17.4161C14.0488 17.4867 14.2027 17.5102 14.3503 17.4845C14.7223 17.4204 14.9725 17.0676 14.9084 16.6955L13.9804 11.2879L17.9083 7.45828C18.0152 7.35351 18.0858 7.21666 18.1072 7.06698C18.1649 6.69279 17.904 6.34639 17.5299 6.2908V6.2908Z" fill="#FFAF02"/>
</svg>
